<svg width="24" height="24" viewBox="0 0 24 24" fill="none" xmlns="http://www.w3.org/2000/svg">
<mask id="mask0_2365_9864" style="mask-type:alpha" maskUnits="userSpaceOnUse" x="0" y="0" width="24" height="24">
<rect width="24" height="24" fill="#D9D9D9"/>
</mask>
<g mask="url(#mask0_2365_9864)">
<path d="M10.8802 6.21406L5.90375 11.2914C5.69633 11.5031 5.43563 11.6113 5.12163 11.6161C4.80789 11.621 4.54244 11.5127 4.32529 11.2914C4.10839 11.0701 3.99994 10.8017 3.99994 10.4862C3.99994 10.1709 4.10839 9.90266 4.32529 9.68137L11.0558 2.81436C11.3266 2.53805 11.6425 2.3999 12.0034 2.3999C12.3643 2.3999 12.6802 2.53805 12.951 2.81436L19.6816 9.68137C19.8887 9.89273 19.9948 10.1586 19.9998 10.479C20.0045 10.7993 19.8985 11.0701 19.6816 11.2914C19.4644 11.5127 19.2013 11.6234 18.8923 11.6234C18.5833 11.6234 18.3202 11.5127 18.1031 11.2914L13.1266 6.21406V19.6539C13.1266 19.9791 13.019 20.2515 12.8039 20.471C12.589 20.6903 12.3222 20.7999 12.0034 20.7999C11.6847 20.7999 11.4179 20.6903 11.203 20.471C10.9878 20.2515 10.8802 19.9791 10.8802 19.6539V6.21406Z" fill="#C1C1C1"/>
</g>
</svg>
