<svg width="10" height="16" viewBox="0 0 10 16" fill="none" xmlns="http://www.w3.org/2000/svg">
<path d="M2.84689 8.00544L9.17703 14.207C9.39234 14.418 9.49641 14.6641 9.48923 14.9453C9.48206 15.2266 9.37081 15.4727 9.1555 15.6836C8.94019 15.8945 8.689 16 8.40191 16C8.11483 16 7.86364 15.8945 7.64833 15.6836L1.01675 9.20779C0.844498 9.03904 0.715311 8.8492 0.629187 8.63826C0.543062 8.42732 0.5 8.21638 0.5 8.00544C0.5 7.79451 0.543062 7.58357 0.629187 7.37263C0.715311 7.16169 0.844498 6.97185 1.01675 6.8031L7.64833 0.306201C7.86364 0.0952624 8.11842 -0.00669105 8.41268 0.000340223C8.70694 0.0073715 8.96172 0.116356 9.17703 0.327294C9.39234 0.538233 9.5 0.784327 9.5 1.06558C9.5 1.34683 9.39234 1.59292 9.17703 1.80386L2.84689 8.00544Z" fill="#545454"/>
</svg>
