<svg width="12" height="12" viewBox="0 0 12 12" fill="none" xmlns="http://www.w3.org/2000/svg">
<path d="M4.5765 2.704C5.21 1.568 5.52649 1 6 1C6.4735 1 6.79 1.568 7.4235 2.704L7.5875 2.998C7.7675 3.321 7.8575 3.4825 7.9975 3.589C8.1375 3.6955 8.3125 3.735 8.6625 3.814L8.9805 3.886C10.2105 4.1645 10.825 4.3035 10.9715 4.774C11.1175 5.244 10.6985 5.7345 9.85999 6.715L9.64299 6.9685C9.40499 7.247 9.2855 7.3865 9.232 7.5585C9.1785 7.731 9.1965 7.917 9.2325 8.2885L9.2655 8.627C9.392 9.9355 9.4555 10.5895 9.0725 10.88C8.6895 11.1705 8.1135 10.9055 6.9625 10.3755L6.664 10.2385C6.337 10.0875 6.1735 10.0125 6 10.0125C5.8265 10.0125 5.663 10.0875 5.336 10.2385L5.038 10.3755C3.8865 10.9055 3.3105 11.1705 2.928 10.8805C2.5445 10.5895 2.608 9.9355 2.7345 8.627L2.7675 8.289C2.8035 7.917 2.8215 7.731 2.7675 7.559C2.7145 7.3865 2.595 7.247 2.357 6.969L2.14 6.715C1.3015 5.735 0.882495 5.2445 1.0285 4.774C1.1745 4.3035 1.79 4.164 3.02 3.886L3.338 3.814C3.6875 3.735 3.862 3.6955 4.0025 3.589C4.143 3.4825 4.2325 3.321 4.4125 2.998L4.5765 2.704Z" fill="#FF5833"/>
</svg>
