<svg width="76" height="31" viewBox="0 0 76 31" fill="none" xmlns="http://www.w3.org/2000/svg">
<g clip-path="url(#clip0_2365_9849)">
<path d="M15.7889 12.0563C15.7889 12.85 15.5845 13.5875 15.1822 14.2625C14.7798 14.9375 14.1602 15.5063 13.3299 15.9563C14.454 16.3938 15.2716 17.0063 15.7889 17.7938C16.3063 18.5813 16.5682 19.4688 16.5682 20.4688V20.4938C16.5682 21.575 16.3638 22.4938 15.9614 23.2438C15.559 23.9938 14.9969 24.6 14.2816 25.0688C13.5662 25.5313 12.7167 25.8688 11.7459 26.0813C10.7687 26.2938 9.70842 26.4 8.55236 26.4H4.04946C3.27023 26.4 2.62514 26.3313 2.10778 26.1875C1.59043 26.0438 1.17527 25.8125 0.862301 25.4938C0.549333 25.175 0.332172 24.7563 0.20443 24.25C0.0766883 23.7438 0.0128174 23.125 0.0128174 22.4V10.0188C0.0128174 9.29375 0.0766883 8.675 0.20443 8.16875C0.332172 7.6625 0.55572 7.25 0.862301 6.925C1.17527 6.60625 1.58404 6.36875 2.10778 6.23125C2.62514 6.0875 3.27023 6.01875 4.04946 6.01875H7.83062C9.01862 6.01875 10.1044 6.15 11.0816 6.4125C12.0589 6.675 12.8956 7.05625 13.5918 7.55C14.288 8.05 14.8373 8.6625 15.2205 9.4C15.6101 10.1313 15.8017 10.975 15.8017 11.9188V12.0688L15.7889 12.0563ZM6.00391 10.3125C5.7101 10.3125 5.5121 10.3563 5.40991 10.45C5.30772 10.5438 5.25662 10.7375 5.25662 11.0438V14.1313H8.07971C8.50765 14.1313 8.88449 14.075 9.19107 13.9688C9.49765 13.8625 9.75313 13.7125 9.95752 13.5375C10.1555 13.3625 10.3024 13.1688 10.3982 12.9563C10.494 12.7438 10.5387 12.5313 10.5387 12.3125V12.1375C10.5387 11.6813 10.3407 11.2625 9.95752 10.8813C9.57429 10.5 8.94197 10.3125 8.07971 10.3125H6.0103H6.00391ZM5.25662 18.2625V21.35C5.25662 21.6563 5.30772 21.85 5.40991 21.9438C5.5121 22.0375 5.7101 22.0813 6.00391 22.0813H8.85255C9.71481 22.0813 10.3407 21.8875 10.7304 21.5125C11.12 21.1313 11.3116 20.7125 11.3116 20.2563V20.0813C11.3116 19.625 11.1136 19.2063 10.7304 18.825C10.3471 18.4438 9.71481 18.2563 8.85255 18.2563H5.25662V18.2625Z" fill="#FF5833"/>
<path d="M19.2763 13.275C19.2763 12.4 19.5382 11.7563 20.0619 11.35C20.5856 10.9438 21.2116 10.7438 21.9397 10.7438C22.6678 10.7438 23.2874 10.9438 23.8175 11.35C24.3412 11.7563 24.6031 12.4 24.6031 13.275V26.3938H19.2699V13.275H19.2763Z" fill="#FF5833"/>
<path d="M33.2959 25.7625C33.2959 27.45 32.8233 28.75 31.8844 29.65C30.9455 30.5563 29.6425 31.0063 27.9882 31.0063C27.6433 31.0063 27.3368 30.9875 27.0685 30.9438C26.8002 30.9 26.5128 30.7875 26.1999 30.6C25.855 30.4 25.5931 30.1125 25.4079 29.7375C25.229 29.3688 25.1779 28.9188 25.2673 28.3938C25.3568 27.9563 25.5548 27.5938 25.8741 27.3063C26.1935 27.0188 26.532 26.875 26.896 26.875C26.9471 26.875 27.0238 26.875 27.1132 26.8625C27.2026 26.85 27.2793 26.8438 27.3304 26.825C27.5028 26.7938 27.6689 26.7 27.8222 26.5438C27.9755 26.3938 28.0521 26.1313 28.0521 25.7563V13.2688C28.0521 12.8313 28.1224 12.45 28.2565 12.1313C28.397 11.8125 28.5822 11.55 28.825 11.3438C29.0677 11.1438 29.3487 10.9875 29.668 10.8875C29.9874 10.7875 30.3195 10.7375 30.6644 10.7375C31.0093 10.7375 31.3415 10.7875 31.6608 10.8875C31.9802 10.9875 32.2612 11.1438 32.5039 11.3438C32.7466 11.5438 32.9382 11.8063 33.0724 12.1313C33.2129 12.45 33.2768 12.8313 33.2768 13.2688V25.7563L33.2959 25.7625Z" fill="#FF5833"/>
<path d="M41.9568 25.7625C41.9568 27.45 41.4842 28.75 40.5453 29.65C39.6064 30.5563 38.3034 31.0063 36.6491 31.0063C36.3042 31.0063 35.9976 30.9875 35.7294 30.9438C35.4611 30.9 35.1737 30.7875 34.8607 30.6C34.5158 30.4 34.254 30.1125 34.0687 29.7375C33.8899 29.3688 33.8388 28.9188 33.9282 28.3938C34.0176 27.9563 34.2156 27.5938 34.535 27.3063C34.8544 27.0188 35.1929 26.875 35.5569 26.875C35.608 26.875 35.6847 26.875 35.7741 26.8625C35.8635 26.85 35.9402 26.8438 35.9913 26.825C36.1637 26.7938 36.3298 26.7 36.4831 26.5438C36.6364 26.3938 36.713 26.1313 36.713 25.7563V13.2688C36.713 12.8313 36.7833 12.45 36.9174 12.1313C37.0579 11.8125 37.2431 11.55 37.4858 11.3438C37.7285 11.1438 38.0096 10.9875 38.3289 10.8875C38.6483 10.7875 38.9804 10.7375 39.3253 10.7375C39.6702 10.7375 40.0024 10.7875 40.3217 10.8875C40.6411 10.9875 40.9221 11.1438 41.1648 11.3438C41.4075 11.5438 41.5991 11.8063 41.7333 12.1313C41.8738 12.45 41.9376 12.8313 41.9376 13.2688V25.7563L41.9568 25.7625Z" fill="#FF5833"/>
<path d="M54.5522 26.3688C53.7602 28.1563 52.6936 29.425 51.3587 30.1688C50.0238 30.9125 48.4462 31.1563 46.6322 30.9063C46.249 30.8563 45.9233 30.75 45.6486 30.5875C45.374 30.425 45.144 30.225 44.9652 29.9938C44.7863 29.7625 44.6586 29.5063 44.5883 29.2313C44.5181 28.9625 44.4989 28.6813 44.5373 28.3938C44.6267 27.8188 44.8758 27.3438 45.3037 26.9625C45.7253 26.5813 46.3256 26.4625 47.1049 26.5938C47.6414 26.6938 48.146 26.6688 48.6314 26.5188C49.1168 26.3688 49.4617 26.1 49.6661 25.7063V25.6813L44.384 14.1813C44.2115 13.8125 44.1285 13.4438 44.1349 13.0938C44.1413 12.7438 44.2179 12.4125 44.352 12.1063C44.4862 11.8 44.6842 11.5375 44.9333 11.3063C45.1823 11.0813 45.4825 10.9063 45.8274 10.7875C46.1532 10.6688 46.4981 10.6 46.8622 10.5875C47.2262 10.5688 47.5647 10.6188 47.8841 10.725C48.2034 10.8375 48.4909 11.0125 48.7527 11.2563C49.0146 11.5 49.219 11.825 49.3723 12.2313L52.3487 20.1063L55.0951 12.2313C55.2356 11.825 55.4336 11.5 55.6891 11.2563C55.951 11.0125 56.2384 10.8375 56.5578 10.725C56.8771 10.6188 57.2092 10.5688 57.5541 10.5875C57.899 10.6063 58.244 10.675 58.5889 10.7875C58.9146 10.9063 59.202 11.075 59.4575 11.3063C59.7066 11.5375 59.8982 11.8 60.026 12.1063C60.1537 12.4125 60.2176 12.7375 60.2176 13.0938C60.2176 13.45 60.1409 13.8125 59.9876 14.1813L54.5522 26.3625V26.3688Z" fill="#FF5833"/>
<path d="M71.9123 26.3938L71.7079 25.3313C71.2097 25.7875 70.6221 26.15 69.9451 26.4188C69.268 26.6875 68.5463 26.825 67.7735 26.825H67.205C66.6685 26.825 66.0937 26.7438 65.4677 26.5875C64.8482 26.425 64.2733 26.15 63.7496 25.7625C63.2259 25.375 62.7851 24.85 62.4275 24.1938C62.0698 23.5375 61.8973 22.7063 61.8973 21.7125C61.8973 20.7188 62.0698 19.95 62.4147 19.3063C62.7596 18.6625 63.2195 18.15 63.8007 17.7625C64.3819 17.375 65.0526 17.0938 65.819 16.925C66.5855 16.7563 67.3966 16.6688 68.2397 16.6688H70.9031C70.884 16.3 70.8137 15.9875 70.686 15.7438C70.5582 15.5 70.3858 15.3063 70.1686 15.1625C69.9515 15.0188 69.7024 14.9188 69.4213 14.8563C69.1339 14.8 68.8401 14.7688 68.5271 14.7688C68.2333 14.7688 67.9459 14.7938 67.6713 14.8438C67.3966 14.8938 67.1028 14.9625 66.7898 15.0438C66.5855 15.1125 66.3875 15.1875 66.2086 15.275C66.0298 15.3625 65.819 15.45 65.5763 15.5563C65.3336 15.675 65.0781 15.7375 64.8099 15.7438C64.5416 15.75 64.2797 15.7188 64.0242 15.6438C63.7624 15.5688 63.526 15.4438 63.3153 15.275C63.1045 15.1063 62.932 14.8938 62.8107 14.6438C62.568 14.1375 62.536 13.6438 62.7085 13.1625C62.8809 12.6813 63.1939 12.275 63.641 11.9375C63.9859 11.6813 64.3755 11.475 64.8035 11.3063C65.2314 11.1375 65.6849 11 66.1511 10.8875C66.6174 10.775 67.09 10.6938 67.5627 10.6438C68.0353 10.5938 68.5016 10.5688 68.9487 10.5688C69.8812 10.5688 70.7754 10.6688 71.6249 10.8625C72.4807 11.0563 73.228 11.4063 73.8795 11.9C74.5246 12.4 75.042 13.0875 75.4316 13.9625C75.8212 14.8375 76.0128 15.9625 76.0128 17.3313V26.4H71.9251L71.9123 26.3938ZM70.9031 20.3938H68.5463C68.0481 20.3938 67.6649 20.5063 67.4094 20.7375C67.1539 20.9688 67.0198 21.2813 67.0198 21.6875C67.0198 22.0938 67.1475 22.425 67.4094 22.625C67.6713 22.825 68.0226 22.9313 68.4697 22.9313H68.8337C69.0764 22.9313 69.3191 22.9 69.5555 22.8313C69.7982 22.7625 70.0153 22.6625 70.2133 22.525C70.4113 22.3875 70.5774 22.2188 70.7051 22.0188C70.8329 21.8188 70.8967 21.5813 70.8967 21.3125V20.4L70.9031 20.3938Z" fill="#FF5833"/>
<path d="M41.2543 0.612502C38.9613 -0.556248 36.7194 0.068752 35.4037 1.51875C35.0716 1.8875 34.4776 1.88125 34.1518 1.51875C33.3087 0.587502 32.0952 1.92213e-06 30.722 1.92213e-06C29.3487 1.92213e-06 28.1352 0.587502 27.2921 1.51875C26.96 1.8875 26.366 1.8875 26.0402 1.51875C24.7245 0.062502 22.4826 -0.556248 20.1896 0.606252C19.5318 0.937502 18.9825 1.46875 18.6376 2.10625C16.7662 5.5625 19.2763 9.025 22.6167 9.025C23.9964 9.025 25.2291 8.425 26.0722 7.48125C26.3851 7.125 26.96 7.125 27.2793 7.48125C28.1224 8.425 29.3487 9.025 30.7283 9.025C32.108 9.025 33.3407 8.425 34.1774 7.48125C34.4903 7.125 35.0652 7.125 35.3845 7.48125C36.2276 8.425 37.454 9.025 38.8336 9.025C42.174 9.025 44.6841 5.55625 42.8127 2.10625C42.4678 1.46875 41.9185 0.937502 41.2607 0.606252L41.2543 0.612502Z" fill="url(#paint0_linear_2365_9849)"/>
<path d="M21.9844 6.6875C21.7608 6.6875 21.5501 6.65625 21.3393 6.5875C20.0746 6.18125 19.6212 4.66875 19.6084 4.6C19.5637 4.4375 19.6595 4.2625 19.8255 4.21875C19.9916 4.175 20.1704 4.26875 20.2152 4.43125C20.2152 4.44375 20.592 5.69375 21.5373 6C22.1504 6.19375 22.8913 5.9625 23.7536 5.3125C23.8941 5.20625 24.0921 5.23125 24.2007 5.36875C24.3093 5.50625 24.2837 5.7 24.1432 5.80625C23.364 6.39375 22.6422 6.6875 21.9844 6.6875Z" fill="white"/>
</g>
<defs>
<linearGradient id="paint0_linear_2365_9849" x1="30.722" y1="0.031252" x2="30.722" y2="9.00625" gradientUnits="userSpaceOnUse">
<stop stop-color="#FFC85F"/>
<stop offset="1" stop-color="#FF5833"/>
</linearGradient>
<clipPath id="clip0_2365_9849">
<rect width="76" height="31" fill="white"/>
</clipPath>
</defs>
</svg>
