<svg width="25" height="22" viewBox="0 0 25 22" fill="none" xmlns="http://www.w3.org/2000/svg">
<path d="M12.4445 17.3188C13.8939 17.3188 15.1227 16.826 16.1307 15.8402C17.1387 14.8544 17.6427 13.6528 17.6427 12.2353C17.6427 10.8178 17.1387 9.61616 16.1307 8.6304C15.1227 7.64463 13.8939 7.15175 12.4445 7.15175C10.995 7.15175 9.76625 7.64463 8.75825 8.6304C7.75025 9.61616 7.24625 10.8178 7.24625 12.2353C7.24625 13.6528 7.75025 14.8544 8.75825 15.8402C9.76625 16.826 10.995 17.3188 12.4445 17.3188ZM12.4445 15.4662C11.5116 15.4662 10.7278 15.1557 10.0931 14.5348C9.45814 13.9141 9.14067 13.1476 9.14067 12.2353C9.14067 11.323 9.45814 10.5565 10.0931 9.93579C10.7278 9.31485 11.5116 9.00438 12.4445 9.00438C13.3773 9.00438 14.1611 9.31485 14.7958 9.93579C15.4308 10.5565 15.7482 11.323 15.7482 12.2353C15.7482 13.1476 15.4308 13.9141 14.7958 14.5348C14.1611 15.1557 13.3773 15.4662 12.4445 15.4662ZM2.72793 21.5C2.08983 21.5 1.54972 21.2838 1.10762 20.8515C0.665511 20.4191 0.444458 19.8909 0.444458 19.2669V5.20369C0.444458 4.57966 0.665511 4.05147 1.10762 3.61912C1.54972 3.18676 2.08983 2.97059 2.72793 2.97059H6.5853L8.92214 0.5H15.9668L18.3036 2.97059H22.161C22.7991 2.97059 23.3392 3.18676 23.7813 3.61912C24.2234 4.05147 24.4445 4.57966 24.4445 5.20369V19.2669C24.4445 19.8909 24.2234 20.4191 23.7813 20.8515C23.3392 21.2838 22.7991 21.5 22.161 21.5H2.72793ZM2.72793 19.6471H22.161C22.2745 19.6471 22.3676 19.6114 22.4405 19.5402C22.5133 19.469 22.5497 19.3779 22.5497 19.2669V5.20369C22.5497 5.09272 22.5133 5.00162 22.4405 4.93038C22.3676 4.85915 22.2745 4.82353 22.161 4.82353H17.4582L15.1407 2.35294H9.74825L7.43067 4.82353H2.72793C2.61446 4.82353 2.5213 4.85915 2.44846 4.93038C2.37562 5.00162 2.33919 5.09272 2.33919 5.20369V19.2669C2.33919 19.3779 2.37562 19.469 2.44846 19.5402C2.5213 19.6114 2.61446 19.6471 2.72793 19.6471Z" fill="#FF5833"/>
</svg>
