<svg width="14" height="14" viewBox="0 0 14 14" fill="none" xmlns="http://www.w3.org/2000/svg">
<path d="M11.375 7.33365L7.00001 11.6666L2.62501 7.33365C2.33644 7.05284 2.10914 6.71532 1.95742 6.34235C1.80569 5.96938 1.73284 5.56904 1.74344 5.16653C1.75405 4.76402 1.84787 4.36806 2.01902 4.00359C2.19017 3.63913 2.43493 3.31405 2.73788 3.04882C3.04083 2.78359 3.39542 2.58397 3.77932 2.46251C4.16321 2.34106 4.5681 2.30041 4.96848 2.34312C5.36886 2.38583 5.75605 2.51097 6.10569 2.71068C6.45533 2.91038 6.75982 3.18031 7.00001 3.50348C7.24124 3.18266 7.54609 2.91508 7.89549 2.7175C8.24488 2.51992 8.6313 2.39658 9.03056 2.3552C9.42981 2.31383 9.83331 2.3553 10.2158 2.47704C10.5983 2.59878 10.9515 2.79816 11.2534 3.06269C11.5553 3.32723 11.7993 3.65123 11.9703 4.01442C12.1412 4.37761 12.2353 4.77216 12.2467 5.17339C12.2581 5.57463 12.1866 5.97389 12.0366 6.34621C11.8866 6.71853 11.6614 7.05588 11.375 7.33715" stroke="#4C4C4C" stroke-linecap="round" stroke-linejoin="round"/>
</svg>
