<svg width="14" height="14" viewBox="0 0 14 14" fill="none" xmlns="http://www.w3.org/2000/svg">
<path d="M7.65335 9.93004L5.20393 8.59421C4.88415 8.93608 4.46893 9.17386 4.01223 9.27664C3.55553 9.37943 3.07847 9.34247 2.64306 9.17056C2.20764 8.99866 1.834 8.69976 1.57068 8.31272C1.30737 7.92567 1.16656 7.46837 1.16656 7.00025C1.16656 6.53213 1.30737 6.07483 1.57068 5.68778C1.834 5.30073 2.20764 5.00184 2.64306 4.82993C3.07847 4.65803 3.55553 4.62107 4.01223 4.72386C4.46893 4.82664 4.88415 5.06442 5.20393 5.40629L7.65393 4.07046C7.51505 3.51977 7.58177 2.93733 7.8416 2.43232C8.10144 1.92731 8.53654 1.53441 9.06534 1.32726C9.59415 1.1201 10.1804 1.11293 10.7141 1.30708C11.2478 1.50122 11.6924 1.88336 11.9645 2.38186C12.2366 2.88036 12.3176 3.46099 12.1922 4.01491C12.0668 4.56883 11.7437 5.05802 11.2835 5.39076C10.8232 5.7235 10.2574 5.87696 9.69212 5.82236C9.12682 5.76777 8.60084 5.50888 8.21277 5.09421L5.76277 6.43004C5.857 6.80414 5.857 7.19577 5.76277 7.56987L8.21277 8.90571C8.60104 8.49124 9.12714 8.23261 9.69245 8.17829C10.2578 8.12398 10.8235 8.2777 11.2836 8.61065C11.7437 8.9436 12.0665 9.43292 12.1916 9.98689C12.3167 10.5409 12.2355 11.1214 11.9632 11.6198C11.6909 12.1182 11.2461 12.5001 10.7123 12.694C10.1786 12.8879 9.59237 12.8805 9.06366 12.6732C8.53495 12.4658 8.10002 12.0727 7.84039 11.5676C7.58076 11.0625 7.51426 10.4801 7.65335 9.92946M3.50002 8.16662C3.80944 8.16662 4.10618 8.04371 4.32498 7.82491C4.54377 7.60612 4.66668 7.30938 4.66668 6.99996C4.66668 6.69054 4.54377 6.39379 4.32498 6.175C4.10618 5.95621 3.80944 5.83329 3.50002 5.83329C3.1906 5.83329 2.89385 5.95621 2.67506 6.175C2.45627 6.39379 2.33335 6.69054 2.33335 6.99996C2.33335 7.30938 2.45627 7.60612 2.67506 7.82491C2.89385 8.04371 3.1906 8.16662 3.50002 8.16662ZM9.91669 4.66662C10.2261 4.66662 10.5229 4.54371 10.7416 4.32492C10.9604 4.10612 11.0834 3.80938 11.0834 3.49996C11.0834 3.19054 10.9604 2.89379 10.7416 2.675C10.5229 2.45621 10.2261 2.33329 9.91669 2.33329C9.60727 2.33329 9.31052 2.45621 9.09173 2.675C8.87293 2.89379 8.75002 3.19054 8.75002 3.49996C8.75002 3.80938 8.87293 4.10612 9.09173 4.32492C9.31052 4.54371 9.60727 4.66662 9.91669 4.66662ZM9.91669 11.6666C10.2261 11.6666 10.5229 11.5437 10.7416 11.3249C10.9604 11.1061 11.0834 10.8094 11.0834 10.5C11.0834 10.1905 10.9604 9.89379 10.7416 9.675C10.5229 9.45621 10.2261 9.33329 9.91669 9.33329C9.60727 9.33329 9.31052 9.45621 9.09173 9.675C8.87293 9.89379 8.75002 10.1905 8.75002 10.5C8.75002 10.8094 8.87293 11.1061 9.09173 11.3249C9.31052 11.5437 9.60727 11.6666 9.91669 11.6666Z" fill="#4C4C4C"/>
</svg>
