<svg width="16" height="16" viewBox="0 0 16 16" fill="none" xmlns="http://www.w3.org/2000/svg">
<path d="M14 14L11.1047 11.1047M11.1047 11.1047C11.5999 10.6094 11.9928 10.0215 12.2608 9.37438C12.5289 8.72729 12.6668 8.03375 12.6668 7.33335C12.6668 6.63295 12.5289 5.9394 12.2608 5.29232C11.9928 4.64523 11.5999 4.05727 11.1047 3.56202C10.6094 3.06676 10.0215 2.6739 9.37438 2.40586C8.72729 2.13783 8.03375 1.99988 7.33335 1.99988C6.63295 1.99988 5.9394 2.13783 5.29232 2.40586C4.64523 2.6739 4.05727 3.06676 3.56202 3.56202C2.5618 4.56224 1.99988 5.91882 1.99988 7.33335C1.99988 8.74787 2.5618 10.1045 3.56202 11.1047C4.56224 12.1049 5.91882 12.6668 7.33335 12.6668C8.74787 12.6668 10.1045 12.1049 11.1047 11.1047Z" stroke="#4C4C4C" stroke-width="1.33333" stroke-linecap="round" stroke-linejoin="round"/>
</svg>
