<svg width="19" height="20" viewBox="0 0 19 20" fill="none" xmlns="http://www.w3.org/2000/svg">
<path d="M17.4445 19.2778L11.8889 13.7222C11.3333 14.1667 10.6945 14.5185 9.97224 14.7778C9.25001 15.037 8.48149 15.1667 7.66668 15.1667C5.64816 15.1667 3.93983 14.4676 2.54168 13.0694C1.14353 11.6713 0.444458 9.96296 0.444458 7.94444C0.444458 5.92593 1.14353 4.21759 2.54168 2.81944C3.93983 1.4213 5.64816 0.722221 7.66668 0.722221C9.6852 0.722221 11.3935 1.4213 12.7917 2.81944C14.1898 4.21759 14.8889 5.92593 14.8889 7.94444C14.8889 8.75926 14.7593 9.52778 14.5 10.25C14.2408 10.9722 13.8889 11.6111 13.4445 12.1667L19 17.7222L17.4445 19.2778ZM7.66668 12.9444C9.05557 12.9444 10.2361 12.4583 11.2083 11.4861C12.1806 10.5139 12.6667 9.33333 12.6667 7.94444C12.6667 6.55555 12.1806 5.375 11.2083 4.40278C10.2361 3.43055 9.05557 2.94444 7.66668 2.94444C6.27779 2.94444 5.09724 3.43055 4.12501 4.40278C3.15279 5.375 2.66668 6.55555 2.66668 7.94444C2.66668 9.33333 3.15279 10.5139 4.12501 11.4861C5.09724 12.4583 6.27779 12.9444 7.66668 12.9444Z" fill="#FF5833"/>
</svg>
